<svg id="Layer_1" data-name="Layer 1" xmlns="http://www.w3.org/2000/svg" viewBox="0 0 1700.79 1133.86"><defs><style>.cls-1{fill:#6b6b6a;}.cls-2{fill:#3baae1;}.cls-3{fill:#fff;}</style></defs><path class="cls-1" d="M920.3,574.37a139.35,139.35,0,0,0-6.5-53.84,91.54,91.54,0,0,0-1-12.65s-.74-23.56-.28-25.53a110,110,0,0,1,15-35.19,107.78,107.78,0,0,1,51.27-41.42s10-1.74,16.55-2.53,15.64.52,15.64.52h.1l4.57-.29-.06-.06a65.24,65.24,0,1,0-70.74-75.8v0a121.77,121.77,0,0,1-.75,17.83,101,101,0,0,1-3.86,18.29A108,108,0,0,1,930.22,383c-15.73,24.09-39.6,39.66-67.09,46.42-2.27.56-19.21.24-19.21.24l-5.49-.56c-6.11-1.29-22.74-2.08-28.88-2.07l.1.06A139.86,139.86,0,1,0,920.3,574.37Z"/><path class="cls-1" d="M586.76,468.81h0l0-.57c0-.64-.07-1.28-.12-1.91l-2.8-44.3a102.48,102.48,0,0,1,10.06-41.68c11.08-23,29.88-40.11,52.55-50.28,1.88-.84,16.28-3.3,16.28-3.3l4.71-.4A75.34,75.34,0,0,0,683.2,325l.27,0,0,0a74.73,74.73,0,1,0-88.71-65.58h0v.06a75.64,75.64,0,0,0,2.25,11.9s2.83,19.92,2.62,21.67a101.81,101.81,0,0,1-9.39,32.34c-13.61,28.26-38.79,47.66-68.56,56.21l-41.18,4.82a89.3,89.3,0,1,0,106.28,82.44Z"/><path class="cls-1" d="M588.18,741.55h0l-.47-.5c-.53-.57-1.05-1.14-1.59-1.69L549.23,700.2a124.23,124.23,0,0,1-22.84-46.67c-7.48-30-3.16-60.53,10.12-87.56,1.1-2.24,12.64-15.67,12.64-15.67l4.07-4a91.42,91.42,0,0,0,13.68-13.5l.23-.23h0A90.56,90.56,0,1,0,433.59,540h0l.06,0a91.29,91.29,0,0,0,11.3,9.36s18.06,16.4,19.22,18.19A123.38,123.38,0,0,1,480.41,605c9.17,36.89.68,74.46-20.47,105.47l-34.69,36.36a108.22,108.22,0,1,0,162.93-5.31Z"/><path class="cls-1" d="M471.13,401.46h0l-.47.16c-.53.18-1.07.35-1.59.54l-36.93,12.61a90,90,0,0,1-37.66,1.08c-22.09-4.08-40.92-16.08-54.78-33-1.15-1.4-6.55-13-6.55-13l-1.44-3.9a65.53,65.53,0,0,0-4.8-13.08l-.08-.22,0,0a65.69,65.69,0,1,0-35.14,90.37h0l.05,0a67.64,67.64,0,0,0,9.57-4.66s16.24-7,17.77-7.23a89.57,89.57,0,0,1,29.6.5c27.11,5,49.37,21.9,63.49,45.16l13.6,33.82a78.49,78.49,0,1,0,45.38-109.17Z"/><path class="cls-2" d="M699.31,474.79v-.05l-14.08,9.79c-24.25,9.39-49,9-70.34-3.55a81.14,81.14,0,0,1-24-21.83c-.67-.89-6.91-13.87-6.91-13.87A92.52,92.52,0,1,0,551.5,550.91S564,543.74,565,543.38a81.22,81.22,0,0,1,32.1-4.55c24.48,1.63,45,15,59.79,36.16l7.59,21,0-.11a121.19,121.19,0,1,0,34.79-121.11Z"/><path class="cls-1" d="M461.76,718h0l-.62.31c-.69.34-1.39.66-2.08,1L410.79,743.1a124.32,124.32,0,0,1-51.32,8.12c-30.92-1.7-58.79-14.78-80.72-35.43-1.81-1.7-11.26-16.67-11.26-16.67L264.84,694A91.06,91.06,0,0,0,256,677l-.15-.29v0a90.57,90.57,0,1,0-32.13,129.77v0l.06,0A91,91,0,0,0,236,798.45s21-12.44,23-13a123.54,123.54,0,0,1,40.57-4.53c37.95,2.08,71.37,21.24,94.79,50.57L419,875.32A108.22,108.22,0,1,0,461.76,718Z"/><circle class="cls-3" cx="781.72" cy="563.39" r="106"/><circle class="cls-3" cx="509.02" cy="816.62" r="75.37"/><circle class="cls-3" cx="495.68" cy="476.3" r="71.95"/><path class="cls-1" d="M1184.28,837.83h0l-.26-.64c-.3-.71-.58-1.43-.89-2.14l-20.63-49.68a124.37,124.37,0,0,1-4.85-51.73c3.66-30.75,18.48-57.73,40.48-78.31,1.82-1.7,17.36-10.18,17.36-10.18l5.23-2.32a91,91,0,0,0,17.57-7.78l.3-.13,0,0a90.57,90.57,0,1,0-127.47-40.3h0l0,.06a92.27,92.27,0,0,0,7.26,12.75s11.08,21.73,11.53,23.82a123.68,123.68,0,0,1,1.95,40.77c-4.48,37.74-25.73,69.88-56.49,91.39L1030,785.11a108.22,108.22,0,1,0,154.26,52.72Z"/><circle class="cls-3" cx="179.27" cy="727.59" r="59.09"/><path class="cls-1" d="M1202,465.34h0l-.56-.07c-.64-.08-1.27-.17-1.9-.23l-44-5.47a102.45,102.45,0,0,1-39.08-17.63c-20.57-15.16-33.87-36.8-39.66-61-.47-2-.22-16.61-.22-16.61l.48-4.7a75.37,75.37,0,0,0,1.58-15.78l0-.26,0,0a74.73,74.73,0,1,0-80.91,75h.06a75.2,75.2,0,0,0,12.1,0s20.11.92,21.79,1.45a102,102,0,0,1,30,15.24c25.24,18.61,39.62,47,42.5,77.79l-2.91,41.37A89.3,89.3,0,1,0,1202,465.34Z"/><path class="cls-1" d="M1146,939.31h0l.38-.38c.43-.43.87-.85,1.29-1.29l29.84-29.86a97.42,97.42,0,0,1,36.06-19c23.39-6.57,47.4-3.91,68.91,5.87,1.79.81,12.59,9.53,12.59,9.53l3.25,3.1a71.71,71.71,0,0,0,10.92,10.41l.18.17v0a71.07,71.07,0,1,0-9-104.52h0l0,0a71.4,71.4,0,0,0-7.07,9.09s-12.44,14.55-13.82,15.5a96.72,96.72,0,0,1-29,13.64c-28.71,8.07-58.38,2.3-83.2-13.55l-29.35-26.34a84.91,84.91,0,1,0,8,127.66Z"/><circle class="cls-3" cx="667.89" cy="252.47" r="46.62"/><path class="cls-2" d="M1382.55,333.49h0l-.2.68c-.22.77-.46,1.53-.66,2.31l-15.28,53.42a128.12,128.12,0,0,1-29.36,44.92c-22.73,22.5-52.06,34.77-83.07,37.26-2.57.2-20.58-2.94-20.58-2.94l-5.72-1.5a94.37,94.37,0,0,0-19.2-5l-.33-.08,0,0a93.55,93.55,0,1,0,77.1,114.56h0l0-.07a95.84,95.84,0,0,0,2.33-15s5-24.69,6-26.66a127.68,127.68,0,0,1,24.65-34.21c27.9-27.62,65.74-39.92,104.43-37.52l50.6,11.59a111.78,111.78,0,1,0-90.76-141.82Z"/><path class="cls-2" d="M1050.18,798.3h0l-.49.23c-.56.27-1.12.51-1.68.79l-38.74,18.25a98.83,98.83,0,0,1-40.95,5.78c-24.59-1.76-46.6-12.55-63.78-29.28-1.42-1.38-8.74-13.42-8.74-13.42l-2-4.08a72.25,72.25,0,0,0-6.84-13.68l-.11-.23v0a72.1,72.1,0,1,0-27.32,102.87h0l0,0a72,72,0,0,0,9.87-6.25s16.87-9.61,18.51-10a98.57,98.57,0,0,1,32.35-3.07C950.44,848.34,976.79,864,995,887.7l19,35.23a86.15,86.15,0,1,0,36.18-124.63Z"/><circle class="cls-3" cx="1084.74" cy="877.14" r="69.33"/><circle class="cls-3" cx="1195.19" cy="555.55" r="69.33"/><circle class="cls-3" cx="1003.76" cy="344.65" r="46.62"/><path class="cls-2" d="M756.86,814.18l0,0s1.23,7.75,1.88,13.46a113.48,113.48,0,0,1,.58,11.76c-3.49,27-16.17,50.66-38.14,66.1A91.13,91.13,0,0,1,702,915.61a49.6,49.6,0,0,1-9.54,2.76,53.52,53.52,0,0,1-9.4.69,42,42,0,1,0,42.23,41.58l0,0s-.08-4.82-.13-10.29a73.13,73.13,0,0,1,1.08-11.68,91.42,91.42,0,0,1,8.39-21c13.1-23.44,35.28-38.46,61.82-44.72,0,0,6.92-.58,13.55-.58s14.75.65,14.75.65h0a73.28,73.28,0,1,0-67.93-58.85Z"/><path class="cls-1" d="M1246.63,225.46h-.43c-.47,0-1,0-1.43,0l-33.23.86a76.8,76.8,0,0,1-30.91-8.7c-16.92-8.93-29.19-23.47-36.17-40.73-.57-1.43-2-12.27-2-12.27l-.18-3.54a56.08,56.08,0,0,0-.58-11.86v-.2l0,0a56,56,0,1,0-51.55,64.56h0a56.71,56.71,0,0,0,9-1.36s15-1.56,16.3-1.36a76.51,76.51,0,0,1,23.94,7.93c20.77,11,34.58,30.37,40.15,52.88l2.47,31a66.87,66.87,0,1,0,64.66-77.25Z"/><circle class="cls-3" cx="1086.75" cy="155.76" r="26.63"/><circle class="cls-3" cx="1248.81" cy="293.6" r="46.62"/><circle class="cls-3" cx="1488.06" cy="363.27" r="77.37"/><circle class="cls-3" cx="1351.24" cy="862.24" r="46.62"/><circle class="cls-3" cx="826.8" cy="799.59" r="40.6"/><circle class="cls-3" cx="685.58" cy="959.82" r="25.56"/><circle class="cls-3" cx="267.73" cy="382.05" r="36.4"/><path class="cls-2" d="M501.11,771.49c32.12-4.87,55.3,17.35,55.84,45.51A47.59,47.59,0,0,1,505,865.11c-25.94-2.39-45.45-24.21-42.85-52A46,46,0,0,1,501.11,771.49Zm-16.24,38.36c-4.73.25-4.16,5.79-7.79,7.15-.18,1.14,1.82,3.24,0,3.9.11-3.15-3.32-2.74-6.49-2.61v5.2c1.77,1.78,1.62-1.68,3.9-1.3-2.1,2.63,3.61,3.95,1.3,6.51-.77-1-3-3.86-4.56-2,2.56,7.42,5.33,14.61,11,18.85-1.8-7.58-9-12.19-1.3-18.2,4.81.82,10.07,1.18,11,5.85,2.79.46,5.43,1.06,7.13,2.61a24.42,24.42,0,0,1-10.39,14.29c22.35,17.49,59.15-1.1,58.44-26.65-4.59,0-4,5.13-7.14,6.5-.92-4.29-4.08-9.77-9.09-7.8a1.79,1.79,0,0,1,1.3,2c-1.88,2.22-5.47,2.75-7.79,4.55,1.15.38,3.82-.78,3.9.65-8.41,6.15-3.27,19.86-15.58,22.11-5.35-6.63,1-23.55-13.64-19.51-6.74-3.81-1.86-12.29,2-16.25-3,0-1.24-1.85-1.31-3.9h3.26c.35-4.61-1-3.29-1.95-6.5.11,1.41-.53,2.06-2,2,.58-2.24.84-4.8,3.25-5.2.57,1.81,1.57,3.21,1.95,5.2,3.13-2,4.09-2.53,9.08-2-.1-1.42.54-2.07,2-2-2.3-2.16,0-5.07-.65-6.49-3.42,1.88-.77,5.79-4.55,7.14-1.38-1-1.88-2.88-2.6-4.55,1.85-5.77,11.91-9.22,15.58-2.6a4.22,4.22,0,0,1-3.25-.65c2.8,4.66,11.58-5.59,16.23-1.3,3.48-8-18.77-17.53-31.16-14.31,1,1.84,3.48-1.47,4.55.65a29.38,29.38,0,0,1-3.25,2.6c2.71,9.8-9,10.4-12.34,16.25-2.89-1.89-4.4-4.39-2.6-7.8-1.57-1.47-2.55-3.51-3.9-5.2-2.74.08-3.29,2.35-5.2,3.26.51,2.76,3,3.47,4.56,5.2-2.49.22-3.22.23-3.89,3.25-3.31-1-1.48-4.28-3.26-5.85-1.87,3.33-4.28,6.11-5.83,9.76,2.64-.06,2.39,2.81,4.55,3.25,1.22-3.85-.84-6.17,1.29-7.8,3,.08,2.75,4.44,5.85,2.61.94,1.66.61,4.58,2,5.84-1.52,1-2.81-.21-3.26.65C485.18,807.37,484.81,808.82,484.87,809.85Zm33.12.65c.14,1.23-.74,1.43-.65,2.59,1.76-.38,5.15.84,5.83-.65-1.79.29-.6-2.42-1.94-2.59C520.78,811.89,519.5,810.69,518,810.5Zm-7.79,2.6a4.92,4.92,0,0,0-4.55-1.29c-1.22,1.59-2.27,3.37-3.91,4.55,2.28-.31,4.23-1,7.14-.64-.3,2.45,2,2.34,3.25,3.25,2.26-2,5.47-.19,7.79,0,.34-1,1-1.64,1.3-2.61-1.45-.5-5.05.69-5.19-2.6-1.29-.19-1.3.88-2,1.29a10.07,10.07,0,0,0-4.55-4.55C508.69,812.13,512.11,812.53,510.2,813.1Zm14.27,13.65c-1.74-1.1-2.37-6.69-4.55-5.2C521.82,822.5,522,828.55,524.47,826.75Z"/><path class="cls-2" d="M833.26,551a37.31,37.31,0,0,0,1.58-8.64,36.43,36.43,0,0,0-33.71-38.72A35.85,35.85,0,0,0,765.23,527a25.71,25.71,0,0,0-41.07,20.6A26.1,26.1,0,0,0,725,554c-11.65,1.8-20.58,12.18-20.58,24.76,0,13.79,10.83,25,24.14,25a26.38,26.38,0,0,0,4.6-.44h94.23a27.82,27.82,0,0,0,4.87.45,26.39,26.39,0,0,0,1-52.75Z"/><rect class="cls-2" x="1159.05" y="517.52" width="3.84" height="52.94"/><rect class="cls-2" x="1224.97" y="517.52" width="4.53" height="52.94"/><rect class="cls-2" x="1162.88" y="565.42" width="66.62" height="5.04"/><rect class="cls-2" x="1161.05" y="517.52" width="63.7" height="5.18"/><rect class="cls-2" x="1220" y="517.52" width="9.5" height="5.18"/><rect class="cls-2" x="1153.12" y="585.07" width="81.48" height="7.14" rx="1.15"/><polygon class="cls-2" points="1233.69 585.91 1154.16 585.91 1159.05 574.56 1229.51 574.56 1233.69 585.91"/><path class="cls-2" d="M1027.29,338.2h-7.84V326.4a14.09,14.09,0,0,0-14-14h-2.81a14.09,14.09,0,0,0-14.05,14v11.8h-7.84c0,.31,0,.62,0,.94v18.77c0,8.32,6.32,15.13,14.05,15.13h18.54c7.73,0,14-6.81,14-15.13V339.14C1027.32,338.82,1027.31,338.51,1027.29,338.2Zm-19.68,25h-7.33l.67-7.7a5.09,5.09,0,1,1,6,0Zm5.1-25H994.17V327.25a9.27,9.27,0,1,1,18.54,0Z"/><path class="cls-2" d="M474.91,490.54a8,8,0,1,1-8.36,8A8.19,8.19,0,0,1,474.91,490.54Z"/><path class="cls-2" d="M493.66,505.29h14.7a39.91,39.91,0,0,0-40.09-39.74V480.1A25.29,25.29,0,0,1,493.66,505.29Z"/><path class="cls-2" d="M469.77,454.79c27.82,0,50.37,22.06,50.37,49.28,0,.41,0,.81,0,1.22h16c0-37.11-30.55-67.2-68.23-67.2v16.75C468.49,454.82,469.13,454.79,469.77,454.79Z"/><g id="iphone"><g id="body"><path class="cls-2" d="M1505.66,314l-34.82.09c-5.32,0-9.66,4.38-9.64,5.15l.21,73.55c0,9.86,4.39,14.2,9.71,14.2l34.82-.08c5.32,0,9.66-4.38,9.63-14.22l-.22-73.56C1515.34,318.34,1511,314,1505.66,314Zm-17.15,90.12a6.85,6.85,0,1,1,6.83-6.86A6.86,6.86,0,0,1,1488.51,404.11Zm-19.39-16.5L1469,325l38.67-.08.19,62.6-38.69.06Z"/></g></g><g id="search"><path class="cls-2" d="M1120.27,902l-18-17.35a30.16,30.16,0,0,0,3.46-16c-1-16.1-14-28.67-29.08-28S1050,854.91,1051,871s14,28.68,29.08,28a25.47,25.47,0,0,0,14.51-5.32l18,17.35a1.39,1.39,0,0,0,2.05-.08l5.76-6.83A1.61,1.61,0,0,0,1120.27,902Zm-60.6-31.31c-.63-11,7.22-20.3,17.51-20.75S1096.38,858,1097,869s-7.21,20.3-17.51,20.75S1060.32,881.64,1059.67,870.65Z"/></g><polygon class="cls-2" points="696.3 272.43 642.18 273.1 641.74 237.02 669.02 254.89 695.85 236.35 696.3 272.43"/><polygon class="cls-2" points="695.8 231.7 641.68 232.37 641.68 232.51 668.95 249.62 695.8 231.7"/><path class="cls-2" d="M1242,308.46a4.47,4.47,0,1,1-4.46,4.47A4.47,4.47,0,0,1,1242,308.46Z"/><path class="cls-2" d="M1261.51,308.46a4.47,4.47,0,1,1-4.46,4.47A4.47,4.47,0,0,1,1261.51,308.46Z"/><path class="cls-2" d="M1272.89,284h-34.78a2.18,2.18,0,0,0-1.63,2.16c0,1.8-2,2.32-2,2.32H1270l-1.39,4.7H1239a2,2,0,0,0-1.52,2,2.29,2.29,0,0,0,1.52,2.16h28.47l-1.31,4.39H1241l-1.66-13.26-.54-4.48s-.49-4.13-.76-5.83-4.56-3.86-13.77-8.2c-2.17-.91-4,3.05,0,5.12l7.26,3.4s1.69,1,1.84,2.29,3.09,23.18,3.09,23.18.12,3,2.88,3h27.72a2.94,2.94,0,0,0,2.77-2.42l5.5-16.32S1277,284,1272.89,284Z"/><path class="cls-2" d="M188.58,729.44c-.29-.84-1.12-2.08-1.05-3.48a30.7,30.7,0,0,1,2.33-9.14,6.66,6.66,0,0,0,2.29-2.32,6.88,6.88,0,0,0,.52-3.86,1.37,1.37,0,0,1-.55-1.27c.27-1.86,1.43-5.65,1.07-10.32-.52-6.7-7.15-9.66-10-10.3A19.45,19.45,0,0,0,170.7,690c-4.87,2.32-5.88,6.83-6.13,9.79s1.16,10.09,1.16,10.09-1.35.28-1.06,2.82a5.89,5.89,0,0,0,2.61,4s3.74,8.19,2.89,11.11-9.31,6.12-15.24,10.7c-7.73,4.06-9.26,17.19-9.26,17.19h67.2s-1-11.59-5.62-16.48S189.73,732.78,188.58,729.44Z"/><path class="cls-2" d="M279.86,363.16c1.82-1,6.43-.1,7.42,2.28,1.31,3.18.28,9.43.28,13.7s.58,10.69-1.14,12.56c-2.69,2.94-8.55,1.5-9.7-1.42s-.28-7.8-.28-12.28C276.45,370,275.09,364.88,279.86,363.16Z"/><path class="cls-2" d="M270.78,375.44c-.57,7.3,2.71,19.51-6.27,17.69a6.32,6.32,0,0,1-3.42-2.85c-1-2.68-1.14-12.08,0-15.13C262.76,370.7,268.76,371.11,270.78,375.44Z"/><path class="cls-2" d="M247.65,384c2.45-.62,7.69-.67,9.13,1.71,3.36,5.58-4.47,9.49-10.27,7.14C242.72,391.31,243.11,385.15,247.65,384Z"/><path class="cls-2" d="M248,395.7H278.2c2.35,0,8.49-.79,8.84,1.14.46,2.59-6.15,1.72-9.13,1.72H256.25c-3.44,0-7.89,1-9.41-1.43-.08-.46.27-.49.28-.85A2,2,0,0,1,248,395.7Z"/><path class="cls-2" d="M1096.36,148.75a9.61,9.61,0,0,0-19.22,0v.17c0,8.1,9.61,23.24,9.61,23.24s9.61-16,9.61-23.24v-.17Zm-9.62,5.84a5.16,5.16,0,1,1,5.15-5.16A5.15,5.15,0,0,1,1086.74,154.59Z"/><path class="cls-2" d="M819.41,819.54c16.74,0,25.9-13.87,25.9-25.9,0-.39,0-.78,0-1.17a18.65,18.65,0,0,0,4.54-4.71,18.54,18.54,0,0,1-5.23,1.43,9.15,9.15,0,0,0,4-5,18.13,18.13,0,0,1-5.78,2.21,9.11,9.11,0,0,0-15.51,8.3,25.8,25.8,0,0,1-18.76-9.51,9.11,9.11,0,0,0,2.82,12.15,9.06,9.06,0,0,1-4.13-1.13v.11a9.09,9.09,0,0,0,7.3,8.92,9.06,9.06,0,0,1-4.11.16,9.1,9.1,0,0,0,8.51,6.32,18.27,18.27,0,0,1-11.31,3.9,17.55,17.55,0,0,1-2.17-.13,25.88,25.88,0,0,0,14,4.09"/><path class="cls-3" d="M1375.18,866.14l-1.45.45.92,1.22a3.16,3.16,0,0,1-.62,4.43,3.09,3.09,0,0,1-1.39.6l-1.46.24.69,1.31a3.18,3.18,0,0,1-1.36,4.27,3.25,3.25,0,0,1-1.26.35H1351a6.85,6.85,0,0,1-3.89-1.43,4,4,0,0,0-1-.66l-.4-.18V859.84l1.91-1.64,6.44-11.93a5.23,5.23,0,0,0,.75-3.16l-.51-6.7a3,3,0,0,1,1.47-.38c2.78,0,5.16,4.44,5.16,8.07a10.84,10.84,0,0,1-.11,1.51l-1.12,7.25h14a3.48,3.48,0,0,1,2.42,1,3.08,3.08,0,0,1,.91,2.18,3.14,3.14,0,0,1-1.26,2.51l-1.3,1,1.42.81a3.17,3.17,0,0,1,1.21,4.32,3.2,3.2,0,0,1-1.82,1.47Z"/><path class="cls-2" d="M1330.19,856.51s-.07,0-.07.06v24.87a.06.06,0,0,0,.07.06h14.32a.06.06,0,0,0,.07-.06V856.57s0-.06-.07-.06Z"/><path class="cls-2" d="M1379.55,863.11a5.27,5.27,0,0,1-.47-7,5.23,5.23,0,0,0-1.55-3.71,5.6,5.6,0,0,0-3.94-1.65h-11.45l.74-4.78a12.56,12.56,0,0,0,.14-1.84c0-4.72-3.19-10.22-7.31-10.22a5.1,5.1,0,0,0-3.26,1.18l-.43.36.6,7.85a3.2,3.2,0,0,1-.46,1.91l-6.29,11.66-.24.2a2.21,2.21,0,0,0-2.18-1.88h-12.2a2.21,2.21,0,0,0-2.21,2.2v23a2.21,2.21,0,0,0,2.21,2.21h12.2a2.21,2.21,0,0,0,2.2-2.21v-1.16l0,0a8.9,8.9,0,0,0,5.28,1.93h18.4a5.3,5.3,0,0,0,5-5.59,5.17,5.17,0,0,0-.14-1,50.63,50.63,0,0,1,5.33-11.49Zm-36,17.26a.06.06,0,0,1-.06.06h-12.2a.05.05,0,0,1-.06-.06v-23s0-.05.06-.06h12.2s.06,0,.06.06Zm31.67-14.23-1.45.45.92,1.22a3.16,3.16,0,0,1-.62,4.43,3.09,3.09,0,0,1-1.39.6l-1.46.24.69,1.31a3.18,3.18,0,0,1-1.36,4.27,3.25,3.25,0,0,1-1.26.35H1351a6.85,6.85,0,0,1-3.89-1.43,4,4,0,0,0-1-.66l-.4-.18V859.84l1.91-1.64,6.44-11.93a5.23,5.23,0,0,0,.75-3.16l-.51-6.7a3,3,0,0,1,1.47-.38c2.78,0,5.16,4.44,5.16,8.07a10.84,10.84,0,0,1-.11,1.51l-1.12,7.25h14a3.48,3.48,0,0,1,2.42,1,3.08,3.08,0,0,1,.91,2.18,3.14,3.14,0,0,1-1.26,2.51l-1.3,1,1.42.81a3.17,3.17,0,0,1,1.21,4.32,3.2,3.2,0,0,1-1.82,1.47Z"/></svg>