<svg id="Layer_1" data-name="Layer 1" xmlns="http://www.w3.org/2000/svg" viewBox="0 0 275 275"><defs><style>.cls-1{fill:#6b6b6a;}.cls-2{fill:#3baae1;}.cls-3{fill:#fff;}</style></defs><rect class="cls-1" width="275" height="275"/><path class="cls-2" d="M135.36,208.81h-17V194.45H118c-5.59,11.7-18.77,16.83-32.95,16.83-31.75,0-47.52-25.86-47.52-55.83s15.57-55.21,47.12-55.21c10.59,0,25.76,4.11,33.35,16.63h.4V62.28h17ZM87.44,195.88c22.76,0,31.55-20.11,31.55-40,0-20.93-9.19-40.22-32.55-40.22-23.16,0-30.95,20.32-30.95,41C55.49,176.59,65.47,195.88,87.44,195.88Z"/><path class="cls-3" d="M165.31,175.36c.6,15.6,13.78,20.52,27.76,20.52,10.58,0,25-2.46,25-15.8,0-13.55-16.78-15.8-33.75-19.7-16.77-3.9-33.74-9.65-33.74-30,0-21.34,20.56-30.17,38.53-30.17,22.77,0,40.94,7.39,42.34,33.25h-17c-1.19-13.54-12.78-17.85-24-17.85-10.18,0-22,2.87-22,13.54,0,12.52,18,14.57,33.74,18.47,17,3.9,33.75,9.65,33.75,30.17,0,25.25-23,33.46-43.93,33.46-23.16,0-42.73-9.65-43.73-35.92Z"/></svg>