<svg id="Layer_1" data-name="Layer 1" xmlns="http://www.w3.org/2000/svg" viewBox="0 0 275 275"><defs><style>.cls-1{fill:#6b6b6a;}.cls-2{fill:#fff;}</style></defs><rect class="cls-1" width="275" height="275"/><path class="cls-2" d="M131.34,216.81a89,89,0,0,1-15.51,1.85c-22.23,0-35.2-3.47-35.2-29.87V117.71H62.57v-9.27H80.63V90.15l23.16-20.61v38.9h30.33v9.27H103.79v67.38c0,16.2,1.16,23.38,19,23.38a35.75,35.75,0,0,0,8.56-.92Z"/><path class="cls-2" d="M147.81,117.71H129.06v-9.27h18.75V92.93c0-18.53,8.11-38.9,35.9-38.9,29.63,0,39.82,10.42,42.37,27.32H200.14C199.91,73,196.9,61.9,185.33,61.9,171.9,61.9,171,76.72,171,87.6v20.84h30.8v9.27H171v98.41H147.81Z"/></svg>